REM DIRINDEX 1\2,1\3,1\4,1\5
REM DIRNAME "folder01","folder02","folder03","folder04","folder05"
TITLE ""
FILE "P1Q_j_1763-1776.mp3" MP3
  TRACK 01 AUDIO
    TITLE "0:"
    INDEX 01 00:00:00
  TRACK 02 AUDIO
    TITLE "3:cjc173_0490"
    INDEX 01 00:00:12
  TRACK 03 AUDIO
    TITLE "0:"
    INDEX 01 00:01:43
  TRACK 04 AUDIO
    TITLE "4:cjc173_0491"
    INDEX 01 00:01:63
  TRACK 05 AUDIO
    TITLE "0:"
    INDEX 01 00:06:54
  TRACK 06 AUDIO
    TITLE "5:cjc173_0492"
    INDEX 01 00:06:72
  TRACK 07 AUDIO
    TITLE "0:"
    INDEX 01 00:11:73
  TRACK 08 AUDIO
    TITLE "3:cjc173_0493"
    INDEX 01 00:12:41
  TRACK 09 AUDIO
    TITLE "0:"
    INDEX 01 00:14:16
  TRACK 10 AUDIO
    TITLE "4:cjc173_0494"
    INDEX 01 00:14:36
  TRACK 11 AUDIO
    TITLE "0:"
    INDEX 01 00:18:38
  TRACK 12 AUDIO
    TITLE "5:cjc173_0495"
    INDEX 01 00:18:57
  TRACK 13 AUDIO
    TITLE "0:"
    INDEX 01 00:22:08
  TRACK 14 AUDIO
    TITLE "3:cjc173_0496"
    INDEX 01 00:22:53
  TRACK 15 AUDIO
    TITLE "0:"
    INDEX 01 00:24:46
  TRACK 16 AUDIO
    TITLE "4:cjc173_0497"
    INDEX 01 00:24:66
  TRACK 17 AUDIO
    TITLE "0:"
    INDEX 01 00:29:12
  TRACK 18 AUDIO
    TITLE "5:cjc173_0498"
    INDEX 01 00:29:34
  TRACK 19 AUDIO
    TITLE "0:"
    INDEX 01 00:33:53
  TRACK 20 AUDIO
    TITLE "3:cjc173_0499"
    INDEX 01 00:34:21
  TRACK 21 AUDIO
    TITLE "0:"
    INDEX 01 00:35:65
  TRACK 22 AUDIO
    TITLE "4:cjc173_0500"
    INDEX 01 00:36:10
  TRACK 23 AUDIO
    TITLE "0:"
    INDEX 01 00:38:32
  TRACK 24 AUDIO
    TITLE "5:cjc173_0501"
    INDEX 01 00:38:54
  TRACK 25 AUDIO
    TITLE "0:"
    INDEX 01 00:44:12
  TRACK 26 AUDIO
    TITLE "3:cjc173_0502"
    INDEX 01 00:44:57
  TRACK 27 AUDIO
    TITLE "0:"
    INDEX 01 00:45:64
  TRACK 28 AUDIO
    TITLE "4:cjc173_0503"
    INDEX 01 00:46:08
  TRACK 29 AUDIO
    TITLE "0:"
    INDEX 01 00:50:59
  TRACK 30 AUDIO
    TITLE "5:cjc173_0504"
    INDEX 01 00:51:02
  TRACK 31 AUDIO
    TITLE "0:"
    INDEX 01 00:55:35
  TRACK 32 AUDIO
    TITLE "3:cjc173_0505"
    INDEX 01 00:56:07
  TRACK 33 AUDIO
    TITLE "0:"
    INDEX 01 00:57:32
  TRACK 34 AUDIO
    TITLE "4:cjc173_0506"
    INDEX 01 00:57:53
  TRACK 35 AUDIO
    TITLE "0:"
    INDEX 01 01:00:69
  TRACK 36 AUDIO
    TITLE "5:cjc173_0507"
    INDEX 01 01:01:16
  TRACK 37 AUDIO
    TITLE "0:"
    INDEX 01 01:05:43
  TRACK 38 AUDIO
    TITLE "3:cjc173_0508"
    INDEX 01 01:06:13
  TRACK 39 AUDIO
    TITLE "0:"
    INDEX 01 01:07:48
  TRACK 40 AUDIO
    TITLE "4:cjc173_0509"
    INDEX 01 01:07:67
  TRACK 41 AUDIO
    TITLE "0:"
    INDEX 01 01:12:06
  TRACK 42 AUDIO
    TITLE "5:cjc173_0510"
    INDEX 01 01:12:25
  TRACK 43 AUDIO
    TITLE "0:"
    INDEX 01 01:16:37
  TRACK 44 AUDIO
    TITLE "3:cjc173_0511"
    INDEX 01 01:17:07
  TRACK 45 AUDIO
    TITLE "0:"
    INDEX 01 01:18:40
  TRACK 46 AUDIO
    TITLE "4:cjc173_0512"
    INDEX 01 01:18:59
  TRACK 47 AUDIO
    TITLE "0:"
    INDEX 01 01:22:59
  TRACK 48 AUDIO
    TITLE "5:cjc173_0513"
    INDEX 01 01:23:06
  TRACK 49 AUDIO
    TITLE "0:"
    INDEX 01 01:27:39
  TRACK 50 AUDIO
    TITLE "3:cjc173_0514"
    INDEX 01 01:28:11
  TRACK 51 AUDIO
    TITLE "0:"
    INDEX 01 01:29:40
  TRACK 52 AUDIO
    TITLE "4:cjc173_0515"
    INDEX 01 01:29:61
  TRACK 53 AUDIO
    TITLE "0:"
    INDEX 01 01:34:17
  TRACK 54 AUDIO
    TITLE "5:cjc173_0516"
    INDEX 01 01:34:33
  TRACK 55 AUDIO
    TITLE "0:"
    INDEX 01 01:38:21
  TRACK 56 AUDIO
    TITLE "3:cjc173_0517"
    INDEX 01 01:38:68
  TRACK 57 AUDIO
    TITLE "0:"
    INDEX 01 01:40:43
  TRACK 58 AUDIO
    TITLE "4:cjc173_0518"
    INDEX 01 01:40:63
  TRACK 59 AUDIO
    TITLE "0:"
    INDEX 01 01:43:48
  TRACK 60 AUDIO
    TITLE "5:cjc173_0519"
    INDEX 01 01:43:69
  TRACK 61 AUDIO
    TITLE "0:"
    INDEX 01 01:49:17
  TRACK 62 AUDIO
    TITLE "3:cjc173_0520"
    INDEX 01 01:49:62
  TRACK 63 AUDIO
    TITLE "0:"
    INDEX 01 01:51:33
  TRACK 64 AUDIO
    TITLE "4:cjc173_0521"
    INDEX 01 01:51:53
  TRACK 65 AUDIO
    TITLE "0:"
    INDEX 01 01:55:68
  TRACK 66 AUDIO
    TITLE "5:cjc173_0522"
    INDEX 01 01:56:13
  TRACK 67 AUDIO
    TITLE "0:"
    INDEX 01 02:00:32
  TRACK 68 AUDIO
    TITLE "3:cjc173_0523"
    INDEX 01 02:01:02
  TRACK 69 AUDIO
    TITLE "0:"
    INDEX 01 02:03:23
  TRACK 70 AUDIO
    TITLE "4:cjc173_0524"
    INDEX 01 02:03:42
  TRACK 71 AUDIO
    TITLE "0:"
    INDEX 01 02:07:21
  TRACK 72 AUDIO
    TITLE "5:cjc173_0525"
    INDEX 01 02:07:38
  TRACK 73 AUDIO
    TITLE "0:"
    INDEX 01 02:11:34
  TRACK 74 AUDIO
    TITLE "3:cjc173_0526"
    INDEX 01 02:12:02
  TRACK 75 AUDIO
    TITLE "0:"
    INDEX 01 02:14:09
  TRACK 76 AUDIO
    TITLE "4:cjc173_0527"
    INDEX 01 02:14:31
  TRACK 77 AUDIO
    TITLE "0:"
    INDEX 01 02:17:60
  TRACK 78 AUDIO
    TITLE "5:cjc173_0528"
    INDEX 01 02:18:05
  TRACK 79 AUDIO
    TITLE "0:"
    INDEX 01 02:23:63
  TRACK 80 AUDIO
    TITLE "3:cjc173_0529"
    INDEX 01 02:24:33
  TRACK 81 AUDIO
    TITLE "0:"
    INDEX 01 02:26:06
  TRACK 82 AUDIO
    TITLE "4:cjc173_0530"
    INDEX 01 02:26:30
  TRACK 83 AUDIO
    TITLE "0:"
    INDEX 01 02:29:38
  TRACK 84 AUDIO
    TITLE "5:cjc173_0531"
    INDEX 01 02:29:57
  TRACK 85 AUDIO
    TITLE "0:"
    INDEX 01 02:36:03
